<svg width="107" height="51" viewBox="0 0 107 51" fill="none" xmlns="http://www.w3.org/2000/svg">
<path d="M28.5256 23L29.821 19.0199H36.1193L37.4148 23H41.3693L35.3523 5.54545H30.5966L24.571 23H28.5256ZM30.7585 16.1392L32.9062 9.53409H33.0426L35.1903 16.1392H30.7585ZM47.0327 5.54545H43.402V23H47.0327V5.54545ZM53.674 23.2472C55.6087 23.2472 56.8615 22.4034 57.5007 21.1847H57.603V23H61.0462V14.1705C61.0462 11.0511 58.4041 9.73864 55.4893 9.73864C52.353 9.73864 50.2905 11.2386 49.7876 13.625L53.1456 13.8977C53.3928 13.0284 54.1683 12.3892 55.4723 12.3892C56.7081 12.3892 57.4155 13.0114 57.4155 14.0852V14.1364C57.4155 14.9801 56.5206 15.0909 54.245 15.3125C51.6541 15.5511 49.3274 16.4205 49.3274 19.3438C49.3274 21.9347 51.1768 23.2472 53.674 23.2472ZM54.7138 20.7415C53.5973 20.7415 52.7962 20.2216 52.7962 19.2244C52.7962 18.2017 53.6399 17.6989 54.9183 17.5199C55.7109 17.4091 57.0064 17.2216 57.4411 16.9318V18.321C57.4411 19.6932 56.3075 20.7415 54.7138 20.7415ZM63.8629 9.90909V23.5881C63.8629 24.5767 63.4453 25.071 62.2777 25.071C62.1243 25.071 61.9879 25.071 61.8004 25.054V27.892C62.0646 27.9006 62.2777 27.9091 62.5334 27.9091C65.6186 27.9091 67.4936 26.6818 67.4936 23.6477V9.90909H63.8629ZM65.6697 8.22159C66.7521 8.22159 67.6385 7.39489 67.6385 6.38068C67.6385 5.375 66.7521 4.54829 65.6697 4.54829C64.5959 4.54829 63.7095 5.375 63.7095 6.38068C63.7095 7.39489 64.5959 8.22159 65.6697 8.22159ZM74.1349 23.2472C76.0696 23.2472 77.3224 22.4034 77.9616 21.1847H78.0639V23H81.5071V14.1705C81.5071 11.0511 78.8651 9.73864 75.9503 9.73864C72.8139 9.73864 70.7514 11.2386 70.2486 13.625L73.6065 13.8977C73.8537 13.0284 74.6293 12.3892 75.9332 12.3892C77.169 12.3892 77.8764 13.0114 77.8764 14.0852V14.1364C77.8764 14.9801 76.9815 15.0909 74.706 15.3125C72.1151 15.5511 69.7884 16.4205 69.7884 19.3438C69.7884 21.9347 71.6378 23.2472 74.1349 23.2472ZM75.1747 20.7415C74.0582 20.7415 73.2571 20.2216 73.2571 19.2244C73.2571 18.2017 74.1009 17.6989 75.3793 17.5199C76.1719 17.4091 77.4673 17.2216 77.902 16.9318V18.321C77.902 19.6932 76.7685 20.7415 75.1747 20.7415Z" fill="black"/>
<path d="M13.321 33.9091H11.7614L10.0483 44.2131H9.92045L4.47443 33.9091H2.94034L0.767045 47H2.35227L4.06534 36.7216H4.19318L9.61364 47H11.1477L13.321 33.9091ZM18.1806 47.2045C20.7885 47.2045 22.8596 45.2358 23.3453 42.2443C23.8503 39.125 22.3738 37.054 19.6635 37.054C17.0556 37.054 14.9846 39.0227 14.4988 42.0398C14.0002 45.1335 15.4703 47.2045 18.1806 47.2045ZM18.2061 45.8494C16.2374 45.8494 15.6493 44.1619 15.9561 42.2443C16.2821 40.2244 17.5669 38.4091 19.638 38.4091C21.6067 38.4091 22.1948 40.1222 21.888 42.0398C21.562 44.0661 20.2772 45.8494 18.2061 45.8494ZM24.8555 47H26.364L27.3867 40.8636C27.6168 39.4318 28.8441 38.4091 30.0202 38.4091C31.1708 38.4091 31.8356 39.1506 31.6566 40.2756L30.5316 47H32.0657L33.1396 40.608C33.3441 39.3295 34.2901 38.4091 35.6708 38.4091C36.7447 38.4091 37.5629 38.9716 37.3327 40.429L36.2333 47H37.7418L38.8413 40.429C39.2248 38.1278 38.1509 37.054 36.4123 37.054C35.006 37.054 33.8555 37.6932 33.1907 38.7159H33.0884C32.7816 37.6676 32.0146 37.054 30.7362 37.054C29.4577 37.054 28.4094 37.6676 27.8214 38.7159H27.6935L27.9492 37.1818H26.4918L24.8555 47ZM40.5 47H42.0085L43.6449 37.1818H42.1364L40.5 47ZM43.3509 35.5199C43.9389 35.5199 44.4247 35.0597 44.4247 34.4972C44.4247 33.9347 43.9389 33.4744 43.3509 33.4744C42.7628 33.4744 42.277 33.9347 42.277 34.4972C42.277 35.0597 42.7628 35.5199 43.3509 35.5199ZM47.2516 41.0938C47.5584 39.3807 48.7601 38.4091 50.2175 38.4091C51.6238 38.4091 52.3141 39.3295 52.0584 40.8636L51.0357 47H52.5442L53.5925 40.7614C54.0016 38.2557 52.851 37.054 50.8823 37.054C49.3993 37.054 48.351 37.7188 47.7374 38.7159H47.6096L47.8652 37.1818H46.4078L44.7715 47H46.28L47.2516 41.0938ZM58.1644 47.2301C59.8775 47.2301 60.9258 46.3097 61.3349 45.6705H61.4116L61.1815 47H62.69L63.7639 40.5312C64.2752 37.4119 61.9741 37.054 60.7212 37.054C59.2383 37.054 57.4485 37.5653 56.4002 39.3551L57.7298 39.8665C58.19 39.1506 59.1616 38.3835 60.5934 38.3835C61.9741 38.3835 62.4854 39.125 62.2809 40.3778V40.429C62.1531 41.1449 61.4116 41.0938 59.5962 41.3239C57.7298 41.554 55.6843 41.9631 55.3008 44.2131C54.994 46.1307 56.2979 47.2301 58.1644 47.2301ZM58.5991 45.875C57.3974 45.875 56.6303 45.3381 56.8093 44.2898C56.9883 43.1392 58.1133 42.7812 59.315 42.6278C59.9542 42.5511 61.6928 42.3722 61.9996 42.0653L61.7695 43.446C61.565 44.6733 60.3888 45.875 58.5991 45.875ZM71.3496 37.1818H69.2466L69.6365 34.8295H68.128L67.7381 37.1818H66.2615L66.057 38.4602H67.5272L66.5172 44.5966C66.236 46.3097 67.4632 47.1278 68.7417 47.1278C69.3042 47.1278 69.6877 47.0256 69.9178 46.9489L69.8155 45.5938C69.6877 45.6193 69.4831 45.6705 69.1507 45.6705C68.486 45.6705 67.8723 45.4659 68.0769 44.1875L69.0293 38.4602H71.1451L71.3496 37.1818ZM71.9824 47H73.4909L75.1273 37.1818H73.6188L71.9824 47ZM74.8333 35.5199C75.4213 35.5199 75.9071 35.0597 75.9071 34.4972C75.9071 33.9347 75.4213 33.4744 74.8333 33.4744C74.2452 33.4744 73.7594 33.9347 73.7594 34.4972C73.7594 35.0597 74.2452 35.5199 74.8333 35.5199ZM80.3192 47.2045C82.9272 47.2045 84.9982 45.2358 85.484 42.2443C85.989 39.125 84.5124 37.054 81.8022 37.054C79.1942 37.054 77.1232 39.0227 76.6374 42.0398C76.1388 45.1335 77.609 47.2045 80.3192 47.2045ZM80.3448 45.8494C78.3761 45.8494 77.788 44.1619 78.0948 42.2443C78.4208 40.2244 79.7056 38.4091 81.7766 38.4091C83.7454 38.4091 84.3335 40.1222 84.0266 42.0398C83.7006 44.0661 82.4158 45.8494 80.3448 45.8494ZM89.4743 41.0938C89.7811 39.3807 90.9828 38.4091 92.4402 38.4091C93.8464 38.4091 94.5368 39.3295 94.2811 40.8636L93.2583 47H94.7669L95.8152 40.7614C96.2243 38.2557 95.0737 37.054 93.1049 37.054C91.622 37.054 90.5737 37.7188 89.96 38.7159H89.8322L90.0879 37.1818H88.6305L86.9941 47H88.5027L89.4743 41.0938ZM105.756 39.3807C105.501 37.9744 104.606 37.054 102.663 37.054C100.592 37.054 98.853 38.2301 98.5717 39.892C98.3416 41.2472 99.0064 42.142 100.745 42.5767L102.305 42.9602C103.276 43.1903 103.66 43.6506 103.532 44.3409C103.404 45.1847 102.381 45.875 100.975 45.875C99.7479 45.875 99.0575 45.3381 98.9808 44.2898L97.4723 44.6477C97.549 46.3097 98.7763 47.2045 100.796 47.2045C103.072 47.2045 104.836 45.9517 105.117 44.2642C105.347 42.8835 104.631 42.0398 102.944 41.6051L101.538 41.2472C100.438 40.9659 99.978 40.5568 100.106 39.8153C100.234 38.9716 101.231 38.358 102.433 38.358C103.762 38.358 104.171 39.0739 104.325 39.7642L105.756 39.3807Z" fill="black"/>
</svg>
